# xmcd
#
# Track frame offsets: 
#        150
#        20102
#        35896
#        51923
#        69705
#        86545
#        113678
#        140952
#        164834
#        185464
#
# Disc length: 2682 seconds
#
# Revision: 0
# Processed by: cddbd v1.5.2PL0 Copyright (c) Steve Scherf et al.
# Submitted via: ExactAudioCopy v1.0b3
#
DISCID=9b0a780a
DTITLE=Hannah Jane Snoots - Merry Christmas
DYEAR=2010
DGENRE=Christmas
TTITLE0=Joy to the World
TTITLE1=What Child Is This
TTITLE2=Hark the Herald
TTITLE3=O Come All Ye Faithful
TTITLE4=The First Noel
TTITLE5=Away in a Manger
TTITLE6=O Holy Night
TTITLE7=Silent Night
TTITLE8=God's Gift
TTITLE9=Have Yourself a Merry Little Christmas
EXTD=
EXTT0=
EXTT1=
EXTT2=
EXTT3=
EXTT4=
EXTT5=
EXTT6=
EXTT7=
EXTT8=
EXTT9=
PLAYORDER=
